{
  "accessors": [
    {
      "bufferView": 2,
      "componentType": 5126,
      "count": 603,
      "max": [
        0.8545861840248108,
        0.5498201251029968,
        2.856954574584961
      ],
      "min": [
        -18.552600860595703,
        -5.181717395782471,
        -0.8783510327339172
      ],
      "type": "VEC3"
    },
    {
      "bufferView": 2,
      "byteOffset": 7236,
      "componentType": 5126,
      "count": 603,
      "max": [
        0.9805115461349487,
        0.9973804354667664,
        0.9901885986328125
      ],
      "min": [
        -0.9792953133583069,
        -0.9824406504631042,
        -0.992322564125061
      ],
      "type": "VEC3"
    },
    {
      "bufferView": 1,
      "componentType": 5126,
      "count": 603,
      "max": [
        1.0,
        0.9753522872924805
      ],
      "min": [
        0.0,
        0.008528202772140503
      ],
      "type": "VEC2"
    },
    {
      "bufferView": 0,
      "componentType": 5125,
      "count": 3132,
      "type": "SCALAR"
    },
    {
      "bufferView": 2,
      "byteOffset": 14472,
      "componentType": 5126,
      "count": 660,
      "max": [
        4.261360168457031,
        2.555634021759033,
        4.688370704650879
      ],
      "min": [
        -4.273836135864258,
        0.08410525321960449,
        -4.49827766418457
      ],
      "type": "VEC3"
    },
    {
      "bufferView": 2,
      "byteOffset": 22392,
      "componentType": 5126,
      "count": 660,
      "max": [
        0.9031530618667603,
        0.9980612397193909,
        0.8287121057510376
      ],
      "min": [
        -0.7516055703163147,
        0.4093206822872162,
        -0.7992675304412842
      ],
      "type": "VEC3"
    },
    {
      "bufferView": 1,
      "byteOffset": 4824,
      "componentType": 5126,
      "count": 660,
      "max": [
        0.470299631357193,
        0.8386218547821045
      ],
      "min": [
        0.04682306945323944,
        0.07266521453857422
      ],
      "type": "VEC2"
    },
    {
      "bufferView": 0,
      "byteOffset": 12528,
      "componentType": 5125,
      "count": 3240,
      "type": "SCALAR"
    },
    {
      "bufferView": 2,
      "byteOffset": 30312,
      "componentType": 5126,
      "count": 242,
      "max": [
        1.0497547388076782,
        3.088651180267334,
        1.1849642992019653
      ],
      "min": [
        -1.5578211545944214,
        0.4967837333679199,
        -1.2437673807144165
      ],
      "type": "VEC3"
    },
    {
      "bufferView": 2,
      "byteOffset": 33216,
      "componentType": 5126,
      "count": 242,
      "max": [
        0.9987444877624512,
        -0.03454763814806938,
        0.9964105486869812
      ],
      "min": [
        -0.9706202745437622,
        -0.9765022397041321,
        -0.9795050621032715
      ],
      "type": "VEC3"
    },
    {
      "bufferView": 1,
      "byteOffset": 10104,
      "componentType": 5126,
      "count": 242,
      "max": [
        0.761476993560791,
        0.5376572608947754
      ],
      "min": [
        0.016449660062789917,
        0.02974313497543335
      ],
      "type": "VEC2"
    },
    {
      "bufferView": 0,
      "byteOffset": 25488,
      "componentType": 5125,
      "count": 1050,
      "type": "SCALAR"
    }
  ],
  "asset": {
    "extras": {
      "author": "uniszok (https://sketchfab.com/uniszok)",
      "license": "CC-BY-4.0 (http://creativecommons.org/licenses/by/4.0/)",
      "source": "https://sketchfab.com/3d-models/daffodil-5cd42ff7932c4ef3847ece84c66c0ba9",
      "title": "Daffodil"
    },
    "generator": "Sketchfab-12.67.0",
    "version": "2.0"
  },
  "bufferViews": [
    {
      "buffer": 0,
      "byteLength": 29688,
      "name": "floatBufferViews",
      "target": 34963
    },
    {
      "buffer": 0,
      "byteLength": 12040,
      "byteOffset": 29688,
      "byteStride": 8,
      "name": "floatBufferViews",
      "target": 34962
    },
    {
      "buffer": 0,
      "byteLength": 36120,
      "byteOffset": 41728,
      "byteStride": 12,
      "name": "floatBufferViews",
      "target": 34962
    }
  ],
  "buffers": [
    {
      "byteLength": 77848,
      "uri": "scene.bin"
    }
  ],
  "images": [
    {
      "uri": "textures/zonkil_noga_baseColor.jpeg"
    },
    {
      "uri": "textures/zonkil_platki_baseColor.jpeg"
    },
    {
      "uri": "textures/zonkil_tubka_metallicRoughness.png"
    }
  ],
  "materials": [
    {
      "doubleSided": true,
      "name": "zonkil_noga",
      "pbrMetallicRoughness": {
        "baseColorTexture": {
          "index": 0
        },
        "metallicFactor": 0.0,
        "roughnessFactor": 0.5
      }
    },
    {
      "doubleSided": true,
      "name": "zonkil_platki",
      "pbrMetallicRoughness": {
        "baseColorTexture": {
          "index": 1
        },
        "metallicFactor": 0.0,
        "roughnessFactor": 0.5
      }
    },
    {
      "doubleSided": true,
      "name": "zonkil_tubka",
      "pbrMetallicRoughness": {
        "baseColorTexture": {
          "index": 1
        },
        "metallicFactor": 0.0,
        "metallicRoughnessTexture": {
          "index": 2
        },
        "roughnessFactor": 0.0
      }
    }
  ],
  "meshes": [
    {
      "name": "Object_0",
      "primitives": [
        {
          "attributes": {
            "NORMAL": 1,
            "POSITION": 0,
            "TEXCOORD_0": 2
          },
          "indices": 3,
          "material": 0,
          "mode": 4
        }
      ]
    },
    {
      "name": "Object_1",
      "primitives": [
        {
          "attributes": {
            "NORMAL": 5,
            "POSITION": 4,
            "TEXCOORD_0": 6
          },
          "indices": 7,
          "material": 1,
          "mode": 4
        }
      ]
    },
    {
      "name": "Object_2",
      "primitives": [
        {
          "attributes": {
            "NORMAL": 9,
            "POSITION": 8,
            "TEXCOORD_0": 10
          },
          "indices": 11,
          "material": 2,
          "mode": 4
        }
      ]
    }
  ],
  "nodes": [
    {
      "children": [
        1
      ],
      "matrix": [
        1.0,
        0.0,
        0.0,
        0.0,
        0.0,
        2.220446049250313e-16,
        -1.0,
        0.0,
        0.0,
        1.0,
        2.220446049250313e-16,
        0.0,
        -0.31348687410354614,
        -0.037300098687410355,
        -8.282285676710711e-18,
        1.0
      ],
      "name": "Sketchfab_model"
    },
    {
      "children": [
        2
      ],
      "name": "root"
    },
    {
      "children": [
        3
      ],
      "matrix": [
        1.0,
        0.0,
        0.0,
        0.0,
        0.0,
        2.220446049250313e-16,
        1.0,
        0.0,
        0.0,
        -1.0,
        2.220446049250313e-16,
        0.0,
        0.0,
        0.0,
        0.0,
        1.0
      ],
      "name": "GLTF_SceneRootNode"
    },
    {
      "children": [
        4,
        5,
        6
      ],
      "matrix": [
        0.1049974024483638,
        0.4871919303516519,
        0.0,
        0.0,
        -0.4871919303516519,
        0.1049974024483638,
        0.0,
        0.0,
        0.0,
        0.0,
        0.49837779998779297,
        0.0,
        -0.413676381111145,
        9.566940307617188,
        0.00923824217170477,
        1.0
      ],
      "name": "DAFFODIL_1"
    },
    {
      "mesh": 0,
      "name": "Object_4"
    },
    {
      "mesh": 1,
      "name": "Object_5"
    },
    {
      "mesh": 2,
      "name": "Object_6"
    }
  ],
  "samplers": [
    {
      "magFilter": 9729,
      "minFilter": 9987,
      "wrapS": 10497,
      "wrapT": 10497
    }
  ],
  "scene": 0,
  "scenes": [
    {
      "name": "Sketchfab_Scene",
      "nodes": [
        0
      ]
    }
  ],
  "textures": [
    {
      "sampler": 0,
      "source": 0
    },
    {
      "sampler": 0,
      "source": 1
    },
    {
      "sampler": 0,
      "source": 2
    }
  ]
}
